grf.mot
version=1
nRows=12
nColumns=31
inDegrees=yes
endheader
time	ground_force_vx	ground_force_vy	ground_force_vz	ground_force_px	ground_force_py	ground_force_pz	1_ground_force_vx	1_ground_force_vy	1_ground_force_vz	1_ground_force_px	1_ground_force_py	1_ground_force_pz	ground_torque_x	ground_torque_y	ground_torque_z	1_ground_torque_x	1_ground_torque_y	1_ground_torque_z	apo_force_vx	apo_force_vy	apo_force_vz	apo_force_px	apo_force_py	apo_force_pz	1_apo_force_vx	1_apo_force_vy	1_apo_force_vz	1_apo_force_px	1_apo_force_py	1_apo_force_pz	
1.24530000000000	36.84100000000000	87.47850000000000	5.61538000000000	-0.21967200000000	0.00000000000000	0.03698800000000	-153.55500000000001	866.44299999999998	57.96910000000000	0.16558900000000	0.00000000000000	-0.12096200000000	0.00000000000000	-1.00824000000000	0.00000000000000	0.00000000000000	7.89017000000000	0.00000000000000	-3.75220000000000	0.31627000000000	0.00000000000000	0.00000000000000	-0.35000000000000	0.00000000000000	3.97650000000000	2.79170000000000	0.00000000000000	0.00000000000000	-0.35000000000000	0.00000000000000	
1.25030000000000	26.86620000000000	60.15270000000000	5.93776000000000	-0.19851800000000	0.00000000000000	0.03309490000000	-152.52500000000001	880.92300000000000	60.91200000000000	0.15851300000000	0.00000000000000	-0.12008700000000	0.00000000000000	-0.89433800000000	0.00000000000000	0.00000000000000	8.08233000000000	0.00000000000000	-3.94690000000000	0.26197000000000	0.00000000000000	0.00000000000000	-0.35000000000000	0.00000000000000	4.11270000000000	2.84710000000000	0.00000000000000	0.00000000000000	-0.35000000000000	0.00000000000000	
1.25530000000000	17.72370000000000	36.46450000000000	6.04822000000000	-0.17696600000000	0.00000000000000	0.02922260000000	-150.60400000000001	893.11199999999997	63.55340000000000	0.15137300000000	0.00000000000000	-0.11940500000000	0.00000000000000	-0.78241500000000	0.00000000000000	0.00000000000000	8.23280000000000	0.00000000000000	-4.19720000000000	0.20161000000000	0.00000000000000	0.00000000000000	-0.35000000000000	0.00000000000000	4.28470000000000	2.92170000000000	0.00000000000000	0.00000000000000	-0.35000000000000	0.00000000000000	
1.26030000000000	0.00000000000000	0.00000000000000	0.00000000000000	0.00000000000000	0.00000000000000	0.00000000000000	-147.84399999999999	902.96400000000006	65.88560000000000	0.14420600000000	0.00000000000000	-0.11893200000000	0.00000000000000	0.00000000000000	0.00000000000000	0.00000000000000	8.34095000000000	0.00000000000000	-4.93230000000000	0.14467000000000	0.00000000000000	0.00000000000000	-0.35000000000000	0.00000000000000	4.81070000000000	3.22810000000000	0.00000000000000	0.00000000000000	-0.35000000000000	0.00000000000000	
1.26530000000000	0.00000000000000	0.00000000000000	0.00000000000000	0.00000000000000	0.00000000000000	0.00000000000000	-144.31200000000001	910.45500000000004	67.90680000000000	0.13704600000000	0.00000000000000	-0.11867400000000	0.00000000000000	0.00000000000000	0.00000000000000	0.00000000000000	8.40685000000000	0.00000000000000	-4.97410000000000	0.05136100000000	0.00000000000000	0.00000000000000	-0.35000000000000	0.00000000000000	4.82120000000000	3.18060000000000	0.00000000000000	0.00000000000000	-0.35000000000000	0.00000000000000	
1.27030000000000	0.00000000000000	0.00000000000000	0.00000000000000	0.00000000000000	0.00000000000000	0.00000000000000	-140.07800000000000	915.57899999999995	69.62009999999999	0.12992000000000	0.00000000000000	-0.11863400000000	0.00000000000000	0.00000000000000	0.00000000000000	0.00000000000000	8.43133000000000	0.00000000000000	-5.02610000000000	-0.04485300000000	0.00000000000000	0.00000000000000	-0.35000000000000	0.00000000000000	4.84370000000000	3.13890000000000	0.00000000000000	0.00000000000000	-0.35000000000000	0.00000000000000	
1.27530000000000	0.00000000000000	0.00000000000000	0.00000000000000	0.00000000000000	0.00000000000000	0.00000000000000	-135.22200000000001	918.35000000000002	71.03400000000001	0.12285400000000	0.00000000000000	-0.11880300000000	0.00000000000000	0.00000000000000	0.00000000000000	0.00000000000000	8.41588000000000	0.00000000000000	-5.08870000000000	-0.14437000000000	0.00000000000000	0.00000000000000	-0.35000000000000	0.00000000000000	4.87650000000000	3.10170000000000	0.00000000000000	0.00000000000000	-0.35000000000000	0.00000000000000	
1.28030000000000	0.00000000000000	0.00000000000000	0.00000000000000	0.00000000000000	0.00000000000000	0.00000000000000	-129.82800000000000	918.80399999999997	72.16080000000000	0.11586700000000	0.00000000000000	-0.11916900000000	0.00000000000000	0.00000000000000	0.00000000000000	0.00000000000000	8.36268000000000	0.00000000000000	-5.16390000000000	-0.24770000000000	0.00000000000000	0.00000000000000	-0.35000000000000	0.00000000000000	4.92210000000000	3.07060000000000	0.00000000000000	0.00000000000000	-0.35000000000000	0.00000000000000	
1.28530000000000	0.00000000000000	0.00000000000000	0.00000000000000	0.00000000000000	0.00000000000000	0.00000000000000	-123.98200000000000	917.00099999999998	73.01620000000000	0.10897700000000	0.00000000000000	-0.11971300000000	0.00000000000000	0.00000000000000	0.00000000000000	0.00000000000000	8.27447000000000	0.00000000000000	-5.25330000000000	-0.35552000000000	0.00000000000000	0.00000000000000	-0.35000000000000	0.00000000000000	4.98290000000000	3.04660000000000	0.00000000000000	0.00000000000000	-0.35000000000000	0.00000000000000	
1.29030000000000	0.00000000000000	0.00000000000000	0.00000000000000	0.00000000000000	0.00000000000000	0.00000000000000	-117.76900000000001	913.01900000000001	73.61890000000000	0.10219800000000	0.00000000000000	-0.12041300000000	0.00000000000000	0.00000000000000	0.00000000000000	0.00000000000000	8.15455000000000	0.00000000000000	-5.35860000000000	-0.46865000000000	0.00000000000000	0.00000000000000	-0.35000000000000	0.00000000000000	5.06100000000000	3.03090000000000	0.00000000000000	0.00000000000000	-0.35000000000000	0.00000000000000	
1.29530000000000	0.00000000000000	0.00000000000000	0.00000000000000	0.00000000000000	0.00000000000000	0.00000000000000	-111.27800000000001	906.96199999999999	73.98950000000001	0.09554200000000	0.00000000000000	-0.12124000000000	0.00000000000000	0.00000000000000	0.00000000000000	0.00000000000000	8.00662000000000	0.00000000000000	-5.48030000000000	-0.58792000000000	0.00000000000000	0.00000000000000	-0.35000000000000	0.00000000000000	5.15800000000000	3.02380000000000	0.00000000000000	0.00000000000000	-0.35000000000000	0.00000000000000	
1.30030000000000	0.00000000000000	0.00000000000000	0.00000000000000	0.00000000000000	0.00000000000000	0.00000000000000	-104.59000000000000	898.95399999999995	74.14950000000000	0.08901660000000	0.00000000000000	-0.12216800000000	0.00000000000000	0.00000000000000	0.00000000000000	0.00000000000000	7.83476000000000	0.00000000000000	-5.62250000000000	-0.71467000000000	0.00000000000000	0.00000000000000	-0.35000000000000	0.00000000000000	5.27770000000000	3.02700000000000	0.00000000000000	0.00000000000000	-0.35000000000000	0.00000000000000	
